# xmcd
#
# Track frame offsets:
#	150
#	18015
#	31385
#	45799
#	61035
#	77144
#	86529
#	100498
#	118525
#	141175
#	153965
#	170969
#
# Disc length: 2685 seconds
#
# Revision: 1
# Processed by: cddbd v1.5.2PL0 Copyright (c) Steve Scherf et al.
# Submitted via: audiograbber 1.83.01
#
DISCID=8b0a7b0c
DTITLE=The Blues Band  - Official Blues Band Bootleg Album
DYEAR=1980
DGENRE=Blues
TTITLE0=Talk to me Baby
TTITLE1=Flatfoot Sam
TTITLE2=Two Bones and a Pick
TTITLE3=Someday Baby
TTITLE4=Boom boom (Out goes the Light)
TTITLE5=Come on in
TTITLE6=Death Letter
TTITLE7=Going home
TTITLE8=I don't know
TTITLE9=Diddy Wah Diddy
TTITLE10=The Blues Band 
TTITLE11=Hoochie Coochie Man
EXTD=
EXTT0=
EXTT1=
EXTT2=
EXTT3=
EXTT4=
EXTT5=
EXTT6=
EXTT7=
EXTT8=
EXTT9=
EXTT10=
EXTT11=
PLAYORDER=
